<svg xmlns="http://www.w3.org/2000/svg" xmlns:xlink="http://www.w3.org/1999/xlink" contentStyleType="text/css" data-diagram-type="SEQUENCE" height="386px" preserveAspectRatio="none" style="width:496px;height:386px;background:#FFFFFF;" version="1.1" viewBox="0 0 496 386" width="496px" zoomAndPan="magnify"><defs/><g><g><title>Seller</title><rect fill="#000000" fill-opacity="0.00000" height="223.9297" width="8" x="23.8242" y="81.2969"/><line style="stroke:#181818;stroke-width:0.5;stroke-dasharray:5,5;" x1="27" x2="27" y1="81.2969" y2="305.2266"/></g><g><title>Website</title><rect fill="#000000" fill-opacity="0.00000" height="223.9297" width="8" x="198.3208" y="81.2969"/><line style="stroke:#181818;stroke-width:0.5;stroke-dasharray:5,5;" x1="202.0063" x2="202.0063" y1="81.2969" y2="305.2266"/></g><g><title>Buyer</title><rect fill="#000000" fill-opacity="0.00000" height="223.9297" width="8" x="468.0576" y="81.2969"/><line style="stroke:#181818;stroke-width:0.5;stroke-dasharray:5,5;" x1="471.4917" x2="471.4917" y1="81.2969" y2="305.2266"/></g><g class="participant participant-head" data-participant="Seller"><text fill="#000000" font-family="sans-serif" font-size="14" lengthAdjust="spacing" textLength="39.6484" x="5" y="77.9951">Seller</text><ellipse cx="27.8242" cy="13.5" fill="#E2E2F0" rx="8" ry="8" style="stroke:#181818;stroke-width:0.5;"/><path d="M27.8242,21.5 L27.8242,48.5 M14.8242,29.5 L40.8242,29.5 M27.8242,48.5 L14.8242,63.5 M27.8242,48.5 L40.8242,63.5" fill="none" style="stroke:#181818;stroke-width:0.5;"/></g><g class="participant participant-tail" data-participant="Seller"><text fill="#000000" font-family="sans-serif" font-size="14" lengthAdjust="spacing" textLength="39.6484" x="5" y="317.2217">Seller</text><ellipse cx="27.8242" cy="329.0234" fill="#E2E2F0" rx="8" ry="8" style="stroke:#181818;stroke-width:0.5;"/><path d="M27.8242,337.0234 L27.8242,364.0234 M14.8242,345.0234 L40.8242,345.0234 M27.8242,364.0234 L14.8242,379.0234 M27.8242,364.0234 L40.8242,379.0234" fill="none" style="stroke:#181818;stroke-width:0.5;"/></g><g class="participant participant-head" data-participant="Website"><rect fill="#E2E2F0" height="30.2969" rx="2.5" ry="2.5" style="stroke:#181818;stroke-width:0.5;" width="70.6289" x="167.0063" y="50"/><text fill="#000000" font-family="sans-serif" font-size="14" lengthAdjust="spacing" textLength="56.6289" x="174.0063" y="69.9951">Website</text></g><g class="participant participant-tail" data-participant="Website"><rect fill="#E2E2F0" height="30.2969" rx="2.5" ry="2.5" style="stroke:#181818;stroke-width:0.5;" width="70.6289" x="167.0063" y="304.2266"/><text fill="#000000" font-family="sans-serif" font-size="14" lengthAdjust="spacing" textLength="56.6289" x="174.0063" y="324.2217">Website</text></g><g class="participant participant-head" data-participant="Buyer"><text fill="#000000" font-family="sans-serif" font-size="14" lengthAdjust="spacing" textLength="41.1318" x="448.4917" y="77.9951">Buyer</text><ellipse cx="472.0576" cy="13.5" fill="#E2E2F0" rx="8" ry="8" style="stroke:#181818;stroke-width:0.5;"/><path d="M472.0576,21.5 L472.0576,48.5 M459.0576,29.5 L485.0576,29.5 M472.0576,48.5 L459.0576,63.5 M472.0576,48.5 L485.0576,63.5" fill="none" style="stroke:#181818;stroke-width:0.5;"/></g><g class="participant participant-tail" data-participant="Buyer"><text fill="#000000" font-family="sans-serif" font-size="14" lengthAdjust="spacing" textLength="41.1318" x="448.4917" y="317.2217">Buyer</text><ellipse cx="472.0576" cy="329.0234" fill="#E2E2F0" rx="8" ry="8" style="stroke:#181818;stroke-width:0.5;"/><path d="M472.0576,337.0234 L472.0576,364.0234 M459.0576,345.0234 L485.0576,345.0234 M472.0576,364.0234 L459.0576,379.0234 M472.0576,364.0234 L485.0576,379.0234" fill="none" style="stroke:#181818;stroke-width:0.5;"/></g><g class="message" data-participant-1="Seller" data-participant-2="Website"><polygon fill="#181818" points="190.3208,108.4297,200.3208,112.4297,190.3208,116.4297,194.3208,112.4297" style="stroke:#181818;stroke-width:1;"/><line style="stroke:#181818;stroke-width:1;" x1="27.8242" x2="196.3208" y1="112.4297" y2="112.4297"/><text fill="#000000" font-family="sans-serif" font-size="13" lengthAdjust="spacing" textLength="93.5835" x="34.8242" y="107.3638">Creates listing</text></g><g class="message" data-participant-1="Buyer" data-participant-2="Website"><polygon fill="#181818" points="213.3208,137.5625,203.3208,141.5625,213.3208,145.5625,209.3208,141.5625" style="stroke:#181818;stroke-width:1;"/><line style="stroke:#181818;stroke-width:1;" x1="207.3208" x2="471.0576" y1="141.5625" y2="141.5625"/><text fill="#000000" font-family="sans-serif" font-size="13" lengthAdjust="spacing" textLength="245.7368" x="219.3208" y="136.4966">Adds themselves as a potential buyer</text></g><g class="message" data-participant-1="Seller" data-participant-2="Website"><polygon fill="#181818" points="190.3208,166.6953,200.3208,170.6953,190.3208,174.6953,194.3208,170.6953" style="stroke:#181818;stroke-width:1;"/><line style="stroke:#181818;stroke-width:1;" x1="27.8242" x2="196.3208" y1="170.6953" y2="170.6953"/><text fill="#000000" font-family="sans-serif" font-size="13" lengthAdjust="spacing" textLength="150.4966" x="34.8242" y="165.6294">Selects potential buyer</text></g><g class="message" data-participant-1="Seller" data-participant-2="Buyer"><polygon fill="#181818" points="460.0576,195.8281,470.0576,199.8281,460.0576,203.8281,464.0576,199.8281" style="stroke:#181818;stroke-width:1;"/><line style="stroke:#181818;stroke-width:1;stroke-dasharray:2,2;" x1="27.8242" x2="466.0576" y1="199.8281" y2="199.8281"/><text fill="#000000" font-family="sans-serif" font-size="13" lengthAdjust="spacing" textLength="73.0171" x="34.8242" y="194.7622">Sends item</text></g><g class="message" data-participant-1="Buyer" data-participant-2="Seller"><polygon fill="#181818" points="38.8242,224.9609,28.8242,228.9609,38.8242,232.9609,34.8242,228.9609" style="stroke:#181818;stroke-width:1;"/><line style="stroke:#181818;stroke-width:1;stroke-dasharray:2,2;" x1="32.8242" x2="471.0576" y1="228.9609" y2="228.9609"/><text fill="#000000" font-family="sans-serif" font-size="13" lengthAdjust="spacing" textLength="85.7822" x="44.8242" y="223.895">Pays for item</text></g><g class="message" data-participant-1="Seller" data-participant-2="Website"><polygon fill="#181818" points="190.3208,254.0938,200.3208,258.0938,190.3208,262.0938,194.3208,258.0938" style="stroke:#181818;stroke-width:1;"/><line style="stroke:#181818;stroke-width:1;" x1="27.8242" x2="196.3208" y1="258.0938" y2="258.0938"/><text fill="#000000" font-family="sans-serif" font-size="13" lengthAdjust="spacing" textLength="123.9443" x="34.8242" y="253.0278">Did the buyer pay?</text></g><g class="message" data-participant-1="Buyer" data-participant-2="Website"><polygon fill="#181818" points="213.3208,283.2266,203.3208,287.2266,213.3208,291.2266,209.3208,287.2266" style="stroke:#181818;stroke-width:1;"/><line style="stroke:#181818;stroke-width:1;" x1="207.3208" x2="471.0576" y1="287.2266" y2="287.2266"/><text fill="#000000" font-family="sans-serif" font-size="13" lengthAdjust="spacing" textLength="188.0747" x="219.3208" y="282.1606">Did the seller send the item?</text></g><!--SRC=[TOyz3i8m34RtdC8Nu08TgFWv0183iviQi9IcKMmgzVQuYJ8W5IbByZr_BqQlSuOxXK3P9SpAdXD6XGSDmaeE2t3-h9Qxoi7XsE8EBfbGII2mACUNA-GFSHf70NtJ91GM8z4Ef5afAcE0eLJlDDiJUPM_gB55jf7H53OqDRrb5UlWXgl0qtOe-OxdokFslTeE2TT-Pua6IPqNCvRxLjf_0G00]--></g></svg>